<svg id="Capa_1" enable-background="new 0 0 512 512" height="512" viewBox="0 0 512 512" width="512" xmlns="http://www.w3.org/2000/svg"><g><path d="m96.911 213.898c19.345-4.324 42.593-8.695 68.714-12.037v-42.773c0-49.833 40.542-90.375 90.375-90.375s90.375 40.542 90.375 90.375v42.773c26.121 3.342 49.369 7.713 68.714 12.037v-54.81c0-87.721-71.367-159.088-159.089-159.088s-159.089 71.367-159.089 159.089z"/><path d="m256 319.33c-10.33 0-18.734 8.404-18.734 18.734 0 10.331 8.404 18.735 18.734 18.735s18.734-8.404 18.734-18.735c.001-10.33-8.404-18.734-18.734-18.734z"/><path d="m256 225.985c-94.282 0-172.822 21.37-199.731 29.658v226.691c26.95 8.282 105.66 29.666 199.731 29.666 94.282 0 172.822-21.37 199.73-29.658v-226.691c-26.949-8.282-105.658-29.666-199.73-29.666zm15 158.442v49.228h-30v-49.228c-19.553-6.342-33.734-24.723-33.734-46.363 0-26.872 21.862-48.734 48.734-48.734s48.734 21.862 48.734 48.734c.001 21.64-14.18 40.021-33.734 46.363z"/></g></svg>